/* XPM */
static char *d05f9938c8144137874e49619aaf7db4SMEkPkd9ZJ5clxQD[] = {
/* columns rows colors chars-per-pixel */
"64 64 6 1 ",
"  c #5A5A5A",
". c #4A4A4F",
"X c #353539",
"o c #3F3F45",
"O c DimGray",
"+ c gray48",
/* pixels */
"   ...oXXoooOOO  .......ooooOOOOOOOOO+++++      ....+OOOOOOOOO  ",
"  ....oXXXooOOO  ..o......ooOOOOOO+++++++O   .......+OOOOOOO    ",
"  ....ooXXooOO  ...o.......oOOOO++++++OO............OOOOO       ",
" .....ooXXooOO  ...oo......oOO++++++OOOO............OOO         ",
"....ooooXXXoO  ....oo...oX.oO+++++OOOO  oo...oo....oOO          ",
"....ooooXXXoO  ....ooo..oXoo++++OOOOO ..oooooo....ooOO    ..   .",
"ooooooooXXXX  ......ooooXXXo++OOOOOO ...oooo....oooXO   ...  ...",
"oooooooXXXXX .......oooXXXXo+OOOOOO ....oXooooooooXXO ..........",
"XXXXooXXXXXoooo....oooXXXXXXOOOOOO ....ooXXoooooooXX .......oooo",
"ooXXXXXXXXoooooooooooXXXXXXX OOOOO.....ooXXooooooXXo .....oooooo",
"ooooXXXXoooooooooooXXXXXXXXX  OOO ....ooooXXooooXXXoo...oooooooo",
"ooooooXXXXoooooooXXXXXXXXXX.   OO.....ooooXXooooXXooooooXooooooo",
"oo......O+++++OOO       ...o   O ....ooooooXXooXXXoooooXXXoooooo",
"oo...O++++++OOOOO .     ..oo    .....oooooooooXXXooooooXXXoooooo",
"...O++++++OOOOOO  .    ..oXX    ....oooXoooooXXXXoooooooXXXooooo",
".O++++++OOOOOOOO ..   ...XXX   .....ooXXooooXXXXXXoooooooXXXoooo",
"O+++++OOOOOOOOO ..  ....oXXX   ....ooXXooooXXXX.       ++++++++o",
"++++OOOOOOOOOO .........XXXX   ...ooXXXooooXXXX      +++++++++ o",
"++OOOOOOOOOOO .........oXXXX  ...XXXXXXXooXXXX.    +++++++++   o",
"+OOOO  OOOO  ..........XXXXXXXooXXXXXXXXXXXXXX.   ++++++++    .o",
"OOOO  OOO  .....ooo...XXXXXX..        OOOOOOOO.  +++++++O    ..o",
"OOO       ....oooo...XXXXXXX....     OO++OOOOO.  ++++OO        o",
" OO  .   ....ooo...oXXXXXXoX..... OO++++OOOOOO. O++OOO       ..o",
" OOO ..  ........oooXXXXXXoX... OO+++++OOO    . O+OOO     .....o",
"  OO  ........oooooXXoXXXooo. OOO++++O        o O+OOO   .......o",
"   O  ......oooooooXXoXXXooo OOO+++O          o OOOO  ....ooo..o",
"       ...oooooooooXooXXXoooOOOO+O    ....    o  OOO ....ooo..oX",
"  ..   ..ooooooooooXoXXXooooOOOO     .......  o  OOO .......oooX",
"...   ..oooooXXXoooooXXXooooOOO     .....  .. o   O ......oooooX",
"..   ..ooooXXXXooooooXXoooooOO     .......    o     ....oooooooX",
"   ..ooooXXXXXooooooooXoooooO     ..........  X     ......oooooX",
"....ooooXXXoooooooooooooooo.O     ............X    .....oooooooX",
"++++++++++++OOo..... .......     ....ooo.....oX  .....oooooooooX",
"++++++++OOOOOOo.....  ......     ...ooo......oX.....oooooooooooX",
"+++++OOOOOOO  o......  ....     ...ooo...o..ooXooooooooooooooooX",
"+++OO  OOO    o......           ...ooo..oo..ooXooooooooooooooooX",
"++OO  OO      o.......         ...oooo.oo..oooXooooooooooooo.   ",
"++OO          o.........       ...ooo..oo.oooooXXXXXXXXXXX.     ",
"+OOO         .Xo..o.......    ...oo...ooooooooooooXXXXXX.       ",
"+OO        ...Xo.oo.....o.............oooooooooooooooXX.        ",
"+OO    .  ....Xooo......oo...........ooo.     +++++++ ...       ",
"OOO   .. .....Xooo.....ooo...o......oooo    +++++++OOO....      ",
"OOO  ..  .....Xoooo...ooooo..ooo...ooooo  +++++++OOO..X.....    ",
"OO   .. ...oooXoooo..oooooo...oooooooooo ++++++OOO....X.......  ",
"OO  .....oooooXooooo.ooooooo...ooooooooo+++++OOO......X....     ",
" O  ....ooooooXooooooooooooooooooooooooo+++OOO........X......   ",
" O  ...oooooooXooooooooooooooooooooooooo++OO .........X........ ",
" O  ...ooo...ooXXXXXXXXXXXXXXXXXoooooooo+O  ....  ....X......o..",
"   ...ooo.....ooooooo..X OOOOOOOO++++++o   ..    .....X......oo.",
"   ...ooo......ooooooo.XOOOOOO++++++OOOo       .......X......oo.",
"  ...ooo.....o.ooooo...XOOOO++++++OOOOOo     .........X.....oooo",
"  ..ooo.....oooooo...  XOO++++++OOOOOOOo.   .........oX...oooooo",
"oooooooo...ooooo...    XO+++++OO  OO ...... XXXXXXXXXXoooooooooo",
"oooooooo..ooooo..      X++++OO   OO ........XooooooooooooooooXXX",
"XoooooXooooo......     o++OOO    O    ......Xooooooo....ooooooXX",
"XXoooXXoo............  o+OOO           .....Xooooooooo.....ooooo",
"oooooXXo....++++++++++ oOOOO     .      ....Xooooooo    ......oo",
"oooooXXo....++++++++O  oOOO      .      ....Xooooo        ......",
"..oooXXooo..++++++O    oOOO     ...      ...Xooo             ...",
"...ooXXXoo..O++++O    .XOOO     ...   .  ...Xoo                 ",
"    ..XXooooO+++O   ...XOO     .....  .. ...Xo      O+++++++OOOO",
"    ..XXooooOO++   ....XO     ......   .....X       +++++OOOOOO ",
"   ...XXXoooOO+O  .....X    .........  .....X       +++OOOOOO   ",
"   ...XXXoooOOOO  .....oXXXXX.....ooooooXXXX       .++OOOOO     "
};
