/* XPM */
static char *_161e4960b93425ff351efbf19bf0447OXnPP9UiEsi6yzfd[] = {
/* columns rows colors chars-per-pixel */
"64 64 27 1 ",
"  c #4C4C4C",
". c #535353",
"X c gray33",
"o c #5A5A5A",
"O c gray37",
"+ c #626262",
"@ c #676767",
"# c #686868",
"$ c #6C6C6C",
"% c #717171",
"& c #747474",
"* c gray48",
"= c gray49",
"- c #818181",
"; c #868686",
": c #898989",
"> c #8D8D8D",
", c #909090",
"< c gray59",
"1 c #9B9B9B",
"2 c gray61",
"3 c #A0A0A0",
"4 c gray65",
"5 c #A9A9A9",
"6 c #ACACAC",
"7 c gray69",
"8 c gray75",
/* pixels */
"==---=XoO+XXXX7775;;=-XX#%3355553332>===@oooo..335553>>$>333777;",
";==-==oO+++X77777755;==XX33553355533>==;=@oooo...3>>>$$337477733",
"=====.O++++777666775;;=XX355335575552>=;;=o@@@oo..o$$$334777333:",
"=====.o+++666776775;;==X35533333775332>=;=@@@@@@oooo$<334473:3:;",
"=-===.ooo65577632;;;==#X353353335775322>;;=@++++++oo$34444,::::-",
"-==:...o6555663;22;;=;.3553533;;35572>2>>;=X++++++oo<3443>;-::--",
"-=:=...5556662;;;2;=;;X35555,;;-=;552>>>;;;=X++++++o<1343-==-=;;",
"-=:=o.5556622;==;;==;*X555533,,,;===;>;;>>>=X++++++o133333-===;:",
":-=oo555222;;==*=;==*%X5535532,,>;;---=;;;>>.X++++@@+<3<<33-=--:",
"-=ooo5332;;;=**=====*.X55335332,>>>;====;>;>.Xo++oo@+<33<<-==-::",
"=.oo3332;;==**==;==*%.X3552332,,;;>>==;==>;;.XXooo@+++<<<1<<<---",
".ooo3322;;==**=;;;%*%.X-3522,,;;;>>>;=;==;;;.XXXXo@+++++<11<---.",
"++Ooo322;2;=**=;=*%%.XX*-32,---;>>;>;;;===;.XoXXX144+++++o.....o",
"+++OO33222;=**===*%%.XX*==,----->>;;;;====.XoXX1444444++++oo++++",
"++OOO+332;;;=****%%.XXXX*===**--->>;;;==;.XXX1441141144++oo+++++",
"OOOO+++X321;=***%%.X##OX*=***===-->>;==.XXX1551144441144oo++$$++",
"111333XXXXX2***%..XOO##OX***===**==*=.XXX151111444411-==-o+%$++$",
"1377633XXXXXXXXXXOO#####O***====***..XX15511114441===--=--+%$$$1",
"33376655XXOOXXXXXXOO#####X***=***.....5555551441=====;;=-==+$$13",
"33676553XOOOOXXXXXXOO####+XX***..XX..588855111====--:;=====X++11",
"366653-=XOOO-6663333222=++++XXXXXXXX58885522=====;;>>;;;===;Xo73",
"66653--=XOO3663663663222*=+++XXXXXXX5885552====:;;>>>>;-=;==Xo37",
"7753--=*XO36633323336632=*=++XXX++XX288552==----,,>;:,,,,:;=Xo&=",
"----===*XX3366322236632==**=XXX+##+X22882===-:,,,::;>>,,,,=;Xo&=",
"======&XX.233333233322-**=*=.X+##+++X>>>2=--;>>>::>>>,,,;==:oo&&",
"**==&&*XOOX23223322-**--*** XX####+++X>>==--;>>>:::>,,::==:.Oo&&",
"*&&&&&XOOOO-22332-***--*** XX++#+++++OX===--=>>>>:>>:,,:::.OOoo&",
"*&&&XXO&&&OX.--*****--**. XXX+++++++OOOX==:===>:>>>>::,,..OOoooo",
"ooXXO&*&&&&&X ..  ..XX..XXXXX+:::::2--XXXXX::===::::::..OOOo@@@O",
"OOOO**&&**&&&XXXXXXXXXXXXXXX::::2:2222--XXXX..::::::..OOOO@@@@@@",
"@OOO&*355533&XXXXXXXXXXXXX::22::22552222--XO++......OOOOO@@@@@@+",
"+OO&&35555553XXXXXXXXXXXX:<22::2255222222---+++OOOOOOOOOO@@@@@@+",
"++O&33533555532XXXXXXOOX:<2622225555522,22,-=+O$11>>>OOO@@@@@+@@",
"++O&233355533332;-XXOOOO:<2666225566655,,2,,=$$11>>>>>>O@@@@@++@",
"+OO2222555552222---XOOOO$:<<266256666665,,,=$$=111>11>>oo@@@++++",
"OOO223555322;;==;;--XOOO$::<<<<2266556552,=$$=>>1111>>ooooo++++O",
"OOO222252;::=====;>-.O++.$::<<:<<26655252:$$===>>11> .oooo6655++",
"OO+222;;:;--::;==>>>.+++o.$$::::<<265222,;$$=>>>>=  .o+o6666665O",
".+++2===;;::;===;>*>.++++oo.$$::::<222<;:;=$==>== .oo+7765566555",
".X++=======;===:>>*>.O++++Oo..$::==;<<==;;;=$=== .oo+67555552222",
"=.X++=;;;=--==;>>**.OOO++OOOO+o.&&=====;;;;;===..oo+66555225522-",
"-.XXX;;;;;--;>>***>.OOOOOO++####o.&&==&&=;===&..oo+66676225522--",
"-.XXoX;;===;******.O+OOOO++######o.&&&&===&&..oooo77666222222-=*",
"-.XXooXX==******..O+++OO###%%--&%#o..&==&&..ooooo77765525522,=**",
"*.XoOOoo........oO+++O#33662-----%#o.....ooooooo,,775555522,-***",
".XXO++OOoXXXXoooO+++O133333662----%#+...oo+++oo,,67555522,,;-==*",
".XO++++OOoXXooooO++O13333666662%%%%%%+..o+++++o,666662,222,;==**",
"XXO+++2211;;oooooOOo-13366336662&%%%%+.o++++++,,656622;,,,,=,=*.",
"XXXO2222211>;;oooooo=-33633662252&%%%%oo++++++,,55552,;;,,,,,**X",
"XX222222211>>;;ooooo.=1331122222,,5555>+o++oo+,,5,55;,,;;;,,=*XX",
"X2233211221><<;;oooo.=-13311221>>5556252-+++oo+,,,5,:;;;;;;=*Xoo",
"o234332111111>;;ooooo.=--11>>-->225622211;+++oo**=,:::;=;;==*Xoo",
"2344433>>>11>;;;=ooooo.@&@@&-->>2252>>1;;;=ooooo****:::====*Xooo",
"23344443>>>>:;;&=oo+#+X.@@&&&--->2>>;;;;;;;&oooo**=**=::===*Xo+o",
">344333443>>>:&&&=+###+X..@@@&---;;;;==;;;=&&oooo**==*====*Xo+++",
"&>344311341>>>=&&&&=++++XX..@@@&&;;;==;;==&&&ooooo**====**Xo+@@+",
"@&&>>>111331>===&&&&&==XXXXX....@@&&&====&&=&&oooooX****XXo@@@@@",
"+&**&>>>11311-;=&&&&==&&@XXXXooO...@@&&=====&&o$@@ooXXXXo+@@@@@@",
"+X**>>>>>>111-::&&&====**@XXOOO+OOOo.@@&&==&&o++$$@o@$$@@++@@@@+",
"++XX&&;>>111>:::&&&&-=*&@@XOOOOOOOOOOo..&&&&o+#++$$@$@@@++++++++",
"-;;XXX&&;;>1;;&;&&==-&*@XX@@>33>==OOOOOo....+##++333>++++++++;--",
";;;-XXXX&&&;;&&&===*&@XX##%>33332===OOoooooo##+335333>>++++>----",
"--;;=XXXXX.&&&&=-**XXXX@#%%3333332>===oooooo++35775333>>++>-->>-",
"---;-=XXXXXXXXXXXXXXXXX@%%>33553222>===oooooo+335775>>>>+>>33>--"
};
