/* XPM */
static char *_d07580606c04607848f90747c727ffcg7K5jvrXa2S9dPMt[] = {
/* columns rows colors chars-per-pixel */
"64 64 13 1 ",
"  c #3F3F3F",
". c #553A1F",
"X c #5A4424",
"o c #664D28",
"O c #6B5332",
"+ c #785836",
"@ c #414141",
"# c #464646",
"$ c #494949",
"% c gray29",
"& c #555555",
"* c #5D5D5D",
"= c #805E36",
/* pixels */
"Xo=++++====+XX==++=+oO++XX++OO++OO=+XX+O+=++==OoXXOO=+OoO+=O++oX",
"Xo=+=+O=+==+XX+=++=+oo++XX+++OO+OO==XX+O+=+=+=+oXXOO=+ooO+=OO+oX",
"Xo=+=+O++=++X.O==++=Oo++X.+O=+O++O+=X.++O===+++OX.O+=OoOO==+O+oX",
"oo+==OO+==+OX.O+=++=+oO+X.OO=+O+OO+=X.++O+==+++OX.O++Oo+O=+=OOoX",
"oo+=+O++=++OX.OO=+==+OOOX.O+==++OOO+X.++OO=+++OOXXO+OoO++++=+Ooo",
"Xo+=+O=+=O+OX.+O++=++OOOX.O===O+O+O+X.+O+O=++=O+X.OOOoO+++==+Ooo",
"Xo==++==+O+oXX+O+=++++OOX.+=+=o+O+O=X.=O+O+=+=O+X.+OOo++O+===Ooo",
"Xo=+=+==OOOoXX++O=++=+O+X.==++o++++=X.=++O+===++X.+Ooo=+O+=+=OoX",
"Xo+O=+=+O+OoX.++O==+==O+X.==+oO+O=+=XX=+=+O+=++OX.=+oO=+o++O=+oX",
"XoOO+==+O+ooX.+++==+==+=X.==OoO+O===XX=+=OO+==+OX.=+oO==oO+O==oX",
"ooOOO=++++oOX.=+==+++===X.=+ooOOO+==XX+==OOO+=+OX.+=o++=ooOO+=oX",
"ooO+O=++++o+X.====+++==+X.=OoOOO++=+XX+=+O+O+==+X.+=O++=+oO++=oo",
"@&&&&&&&&&&&$@&&&&&&&&&&$@&&&&&&&&&&$@&&&&&&&&&&$@&&&&&&&&&&&&$@",
"@&&*&&&$&&*&&@&&*&&$&&*&&@&&*&&$&&*&&@&&*&&$&&*&&@&&*&&&$&&&*&&@",
"@&***&&@&***&@&***&@&***&@&***&@&***&@&***&@&***&@&***&&@&&***&@",
"@&&*&&$ &&*&$@&&*&$ &&*&$@&&*&$ &&*&$@&&*&$ &&*&$@&&*&&$ &&&*&$@",
"@$&&$$@ #&&$$@$&&$@ #$&$$@$&&$@ #$&$$@$&&$@ #$&$$@$&&&$@ #$&&$$@",
"@$$$$$$#$$$$$@$$$$$#$$$$$@$$$$$#$$$$$@$$$$$#$$$$$@$$$$$$#$$$$$$@",
"Xo=++o==++==XXOOoo+=+++oXX++++o+++OoX.oOO+++=++OX.o+====+o==+ooX",
"Xo=+Oo=++O==XXOOOo+=+++oXX+O+oo=+OOoX.oO+O=+=O+OX.o+====Oo+=OooX",
"XoO+oO=++O+=X.OO+oo=+=OoXXOO+o+=+OooX.O++O===o+OX.o==+==OoO=oooX",
"XoOOoO+O+O+=X.OO+Oo===ooXXO+Oo==++oOX.O+OO+=+oOOX.O=++=+ooO+oOoo",
"XoOOOOOoOO==X.O+++o+==oOXXo+oO==+=OOX.++O++=OoO+X.O++==OoooOoOoo",
"XoOO+OOoO+==X.O+++Oo=+oOXXoOoO+===+OX.++O+==OoO+X.+++=+OoOoOO+oo",
"oo+O+Ooo+===X.++O+Oo=+OOXXooo=O+==++X.+O++=+ooO+X.++=++OOOoOO+oo",
"oo++++oO+=+=X.O+OOOo==O+XXoo+=OO==++X.+O+O=OoO+OX.++=+++OOOoO+oX",
"Xo=+O+oO+=++X.O+OO+O==++XXoo==+O=++OX.OO+O+oO++OX.+O=+=+O+Oo++oX",
"Xo=+OOoO=+O+X.O++O=+=+=+XXo+===O=O+OX.O+OOOoO++OXX+O===+++Oo++oX",
"Xo+OOoO+=+O+XXO+++==++==XXo+=+=+OO+OXXO+OOooOO++X.OO===+O+oO+OoX",
"Xo+Ooo+==OO+XX+O++==++==XXo==+++OOOOXXO+O+oO+O++X.OO+==+OOoO+OoX",
"Xo+OoO+=+O+OXX+O+O+=O++=XX+=+++OO+O+XX++O+oO+O=+XXO++=++Ooo+OOoo",
"XoOOo+==+O+OXX+OOO+=O++=XX==+O+O+=O+XX++++O+++=+XX++==+=+oO+OOoo",
"ooOoO+===OOOX.+OoO++OO+=XX=++O+o+=++X.++=+o+++=+XX+O=+==Oo++OOoo",
"ooOoO+=+=+OoX.+Oo++OOO=+XX=+=OOo==+OX.++==oO+O=+X.+O=+=+oO+OO+oo",
"oo+o+==O++OoX.++o++OO+=+XX+==+Oo=++OXX+++=oo+O+=X.OO++=OoO+OO+oX",
"oo+O+=+O++ooX.++Oo+O+O+OXX+==+oO=+OOXX=++=OoOO+=X.OO+==oOO++O+oX",
"oo=OO=++O+oOXX=++o+++OOOX.o+=+o+==O+XX=+=+OoO++=XXOoO=+oOO+=++oX",
"oo=O++++OOoOXX=+ooO+OOOoX.oO=ooO+=O=XX=+=++oO+==XXOoO=+ooO+==+oX",
"Xo=+=O+OOooOXX==oOo+O+OoXXOO+oOO+=+=X.=+=++OO+=+XX+Oo+=+oOO===oo",
"Xo===O+O+oO+XX==o+o+O+OoXXO+=O+O++==X.+==++O+O=+XX=OoO=+O+O=+=oX",
"Xo+==OOO+o++X.+=O+oo++ooXXo+=++O+O=+XX+==+OO+O+OXX=+oo++++O+O=oX",
"XoO=+OO+oO+OX.O=+=+o+OoOXXoO==+OOO==XX+=+OoO++OOXX==Oo+O=+O+O=oX",
"ooO+=+O+o+OOXXO++=+oOoOOXXoo+=+O+O+=XX+=+Oo+O+O+XX+=Oo+o=+OOO+oo",
"XoOO==O+o+O+XXO+==+OooO+X.+oO+=++OO=XX==OOoOO+O+XX++OOOo==+OO+oo",
"XoOO+=+oO+O=XXOO=+OOo+O+X.=oo+=+OOO=XX=+O+ooO+O=XXO+oOoO+=+O++oo",
"XoO++=+o+++=XXOO=+O+o+++X.=+o+=+OO+=XX=+O+Oo+++=XXOOoooO+==O++oX",
"@&&&&&&&&&&&$@&&&&&&&&&&$@&&&&&&&&&&$@&&&&&&&&&&$@&&&&&&&&&&&&$@",
"@&&*&&&$&&*&&@&&*&&$&&*&&@&&*&&$&&*&&@&&*&&$&&*&&@&&*&&&$&&&*&&@",
"@&***&&@&***&@&***&@&***&@&***&@&***&@&***&@&***&@&***&&@&&***&@",
"@&&*&&$ &&*&$@&&*&$ &&*&$@&&*&$ &&*&$@&&*&$ &&*&$@&&*&&$ &&&*&$@",
"@$&&$$@ #&&$$@$&&$@ #$&$$@$&&$@ #$&$$@$&&$@ #$&$$@$&&&$@ #$&&$$@",
"@$$$$$$#$$$$$@$$$$$#$$$$$@$$$$$#$$$$$@$$$$$#$$$$$@$$$$$$#$$$$$$@",
"XoO++=OOoO=+XX+++=+OoO=+X.OOOo==OOOoXX=+O++Oo++=XXO+=++o++O+++oX",
"XoOO+=+Oo+=+XX=++=OOo+=+X.+OOo+=+OOoXX=OO=+OoO==XXO+==+o=+OO+=oX",
"Xo+O+++oo+==XX=+=+oOO+==XX++Ooo==O+OXXOO+==+oO=+XXO=+=oO=+oO==oo",
"Xo++O+Oo+++=XX+==+oO+=+=XX++ooo+=++OXXoO++=+oo++XXO==+o+=+o+=+oo",
"Xo+OOOOo+=+=X.+=+Oo++=+OX.O+oOo+=+=OXXo+O+++Oo+OXXO+=oo===oO=+oo",
"oo+O+OoO====X.+=+oO=+=+OX.OOoOoO===OXXO+O+=+OoOOXX+O=o+=+=+o==oX",
"oo+O+OoO===+X.=+Oo+==+OoX.OoO+Oo+==OXXO+++=++ooOXX+O+o+=+O+o+=oX",
"oo++++o+=+=+X.=+Oo=+=+OoX.OoO+Oo+=+OXXO++==+=OoOXXOOoo++OO+oo+oo",
"XoO+++O=++=+XX=+oo=++OooXXoo+++o+=oOXXOO+=++=OooX.oOo+o+OO=+oooo",
"XoO+O+O=++++XX==oO==+OoOXXoO++Oo=+ooXX+O==++=+OoX.ooo=o+O+==oooX",
"ooOOO++=+++OXX+=oO+=+oOOXXoO++oO=+OoXX+O=++O==OoXXoo+=oo+===+ooX",
"ooOO++==+++OXX+=o++=OoOOXXoO+Oo+=OOoXX+O=++O+=+oXXoO==+o+=+==ooX"
};
