/* XPM */
static char *_02a5d61e7524c84f381e0ee20b56ccdr0Yv2OWkFsiYs9NU[] = {
/* columns rows colors chars-per-pixel */
"64 64 56 1 ",
"  c #364636",
". c #374B37",
"X c #374F37",
"o c #375037",
"O c #385138",
"+ c #385538",
"@ c #385838",
"# c #395939",
"$ c #395D39",
"% c #3A623A",
"& c #3B663B",
"* c #3B683B",
"= c #3B6D3B",
"- c #3C6D3C",
"; c #3C713C",
": c #3E773E",
"> c #3E7A3E",
", c #3F7E3F",
"< c #535353",
"1 c #565656",
"2 c #5A5A5A",
"3 c #5D5D5D",
"4 c #626262",
"5 c #656565",
"6 c #676767",
"7 c #686868",
"8 c #6C6C6C",
"9 c #717171",
"0 c #747474",
"q c #777777",
"w c gray48",
"e c gray50",
"r c #418741",
"t c #428A42",
"y c #438D43",
"u c #449144",
"i c #818181",
"p c #838383",
"a c gray53",
"s c #888888",
"d c #898989",
"f c gray55",
"g c gray56",
"h c #909090",
"j c gray59",
"k c #9B9B9B",
"l c gray61",
"z c #A0A0A0",
"x c gray64",
"c c #A5A5A5",
"v c #A9A9A9",
"b c gray67",
"n c #ACACAC",
"m c #AFAFAF",
"M c gray69",
"N c gray75",
/* pixels */
"llvvvllhlvviehh8kkfff3$$$%%%%%0dddllxxvxxvvvviii111113313358llll",
"vvnnnvvhhlhheeekkffffff$%%%%%%%0dddllxxxvvvxxxllii113333335ljlll",
"vnnnnnnvhhheeeekkkfkkffX$$%%%%%%0ldllllvvvvvlllaiaii333333djlnnl",
"lnnvvnvvlheeeeffkkkkffX$%%%%%%%%%%:llxvvvxllaaeeaaii133338djjjjl",
"jlnnvvlvlaeeeeeffkkfXX$%%%uu::%%%%%:lllvlaaaeeeeeafiX344@8ddjjdj",
"jjlnvlllhaeeeffffeXX$%%%uuuuuu:%%%%::laaaaeeaaaeefffX44@X%8ddddd",
"ddjllljaaaeeeefeeX$$%%:uuuuunuu:%%%%::eeaaaaaeeeafwfX%@XX@%-88dd",
"deeajjeeaaaeeeeeX$$%$:::uu,vllu::%%%:::eeeeaeeeaffwfX%%%@XX%@@8d",
"@0eeeeeaaaaaeee.$$$X:uuuu,lvvll::%1%%:::aeeeeeaffwwX$%%%%%%%%%@@",
"@@00ee00eaeee0.X$XX:,,uu,:vvlli:i<11%:::aaeeaffwwwfX%%%%%%%%%%%%",
"%@@0000eee00..XXOX:nn:,,,,llliewi<113X:::eeawwwwwwX$%%%:::%@@%%%",
"%%@@@0**00....XXO%nnnv::,:llhewwuo113XXX::wwwwwwXX%%%::;:xx%@@@%",
"%%%@@@......XXXX%,nnvvv::llhiwwwwOXX@%XXXXXOO<<<%$$%::,:,xnnf%@@",
"@%%%@@@@...XXXX%%%,vvvvl:hhaieewXOO@%%%XOOO1122X$$%%:,,,xxxnnnf%",
"%%%%@@@@@.XXXXX%n%,,nlhlllhaeewwOO@%%%%OOOXX222X$%%:,,xxxnnnnnnf",
"%%%@@@@@...XXX%%nv%,llahhhhehewXO@%%%%tttta;X2X$$$%2ikxxnnxxnnnn",
"%%nnvv%%$XX.XX%%vvvvlhaihhhhhwwXO@%%ttttlkkf;;$$$$22eixxnxcnnffv",
"@vvvvvvv%%$XX$%%vhvvahhaiihhewXXO@yyrtlllkkf;>$$$222<ekxxkklllff",
"@flvvvkkvv%$$$$%hhvhdaaaaaaewoX@%yyy,rrkllk;>r$$2222<eikxxkklkk@",
"flvvlllkka0%$$$%wehdddaeaaeewoX@%yy,,xrrkkk;rr$a22222<eiikkffi@@",
"llnllfkaaae0%$$$uuwwdddeeeuwXX@@yy,,cxxfffk>t>$ae22222.505:::%%%",
"llllaaaaaaa00$$$;uewweddeiiwX@@@yyy,cccxff>rt>a0e22474O.::::%O%%",
"lllaaeeiiie0=%$$$;;;eweeeewoX@@@y,,,xxxcc>;tr:000e47774O..::OO1i",
"llaaeeaiee00=%$$$$;;eeeewwXX@@@@,y,,cxkkxr:t>:e0000e4444OO..OO1i",
"lleeeeeee00e=%X$$$XXwwwwXXX@%%@@o,,,,fkkktrt>eee00000eeOOOOOO1<l",
"lleeee0eeeee=%X$$$$$XX@XXX@@@%%@@;,,,fffkttr:edi0000ee0w5OOO122l",
"lleeee000ee=%XX$$$$$$$8@X@@@%%%@@o;,,,fffftrkedd000eeeiw05O&33el",
"leeeee0000=%XXX$$$$$8555@@@%%$%@@@oo;,,ffkrkfadd0000ee0055O&33ll",
"leeee00000= XXX$$yyyy444%$$%$$%%@@@@oo;,aafkdd0d00eee0055OO%3ell",
"leee0000e= X$X$yyyyyuuy%%%$$$$$%%%@@@@oo,00ad000ueew0055OO%%5lxl",
"xdi00e0ee X$XXxMyyuuuuu:%%$$$$$%%%%%@@@@@@o0000ee0ff055OO&%9lxxx",
"iii0eee= X$$Xxxvyyyuu>>:%%%$$$%%%,,,:::@@@@@@0ff0ffw55O+&&lxvvvx",
"eei0ie= X$$XxvMMMuuu>>>*%%%$$$:vxx,::::::@@@@@Off0052OO%uuuvMMMa",
"aeeie==X$$$xMMMMMyuuu>;*%%$$*:xvvvx,,:::::@@@@@OO55+OO8uuucMMMxd",
"eeeee= X$$MMMMnnnM>u>>;X**@*uxvvMvvv,,:::e@@@@%%$OOOO8uucMMMxxdd",
"eeee==X$$MnnnMMnMM>>>>*X*x@*uxxxMMvx,,:,ae@@@@@%%$OO8uuxccMxdxdi",
"eiee= $$nnvvMMnxla>>>;X*1vx**xxxvMMvx,,,aaeX@%@%%%OO8uxcccfdddde",
"ieed X$nnvvvnnxall>>>;X<<vxv**:axvvMl,:,,aeX@%%%%%$Ojxccxfieddie",
"iede$$vvvvnnnlaaal>>>;<<vvvvh:::eavv,,::,faeX@%%%%$Ojjxcxieeieii",
"iede$$vvvnnllaeeaa>>;*<1vvvxxhhfaee,,,,:,ffeX@%%%%%Ojxxxxxieeeid",
"die$$vvvlllaaeewea;>;*<vvxvvxlhhfaae,:::,affX$%%%%%$Ojxjjxxiiiid",
"ie$$2vttraaaewweee;;;*<vvxxvxxlhfffae,::afafX%%$$%%$Ojxxjjieiidd",
"e<22xttttteewweeaee;*<1xvvlxxlhhaaffee::efaaX$%%$$%%$$jjjjjjjiii",
"<2%%ttrrrteewweaaa9w*<1exvllhhaaafffaea:eaXXX$$$$$$%$$$$jjjkaaii",
"%%%%ttttrrrewweaew99<11wexlhiiiaffafaaaeeXXX$$$$,ryr$$$$$$$<iiii",
"%%%%%tttrrrewweeew99<11weehiiiiiffaaaaeeXXX$$$cryyyyrc$$$$22<<%%",
"%%%334tttrrrewwww99X@111weeewwiiiffaaa::XX$$cccrryyyrcc$$$$4444%",
"%%%3444Xtttrtwww99X@@@@1wewwweeeiiffa::XX$cvvvk,rryrkkcc$$$$8844",
"%kkxxx11XXXttww9XX@@@@@@1wwweeewwiew:+XXvvvkkkk,,yykkeeee$$$$$$+",
"kxnnnxx::XX.XXXXX@@@@@@@@wwweeeewww:++Xlvvkkkkc,rrreeeeeee+$$$+k",
"xxxnnnvv::XXXXX@@@@@@@%%&@wwwewww++++Xlvvvvvkcc,,,eeeaaeeee+$+kx",
"xxnnnvvx::XX.%%yyyyll%%%%&XXwwwXXX+@+XvNNNvkkkee,eeeaaeeeeeX++kk",
"xnnnvxieX:XX%%nnyyyyllle%&&+XXX+++++XlNNNvlleeueeaaffaaaeeeaoOnx",
"nnnvxiieXXXX%nxnnyyyxlllwe+%%++%%+++oNNNvvleiiiaaaffffaeeaeeoOxn",
"nnvxiie0+XX%nxxxlxyynnxlewe+%%%%+++%uNNvvleeeeiefffaahhhhaaeoO0e",
"iiiieee0+X+%nnxlllynnxleewwX%%%++%%%ulNNxeeeedhffdadffhhhheaXO0e",
"eeeeee0+++++xxxxlxxxlliwweweX%%%%%%%%uffleeeafffddfffhhhaeedOO00",
"00ee00w+3+++xllxxlliwwiiwwweXX%%%%%%%uffeeeeafffdddfhhddeedOOO00",
"00w0001333++XlxxliwwwiiwwweXXX%%%%%%%%:eeeeeeffffdffdhhdddOOOO+w",
"20w0113000++XlliwwwwiiwwweXXX%dduuu%%%%:eedeeefdffffddhhXXOOO+++",
"3211300w000++XiwwwwwwwweXXXXXdduuuuui%%%%::ddeeedddddOXXOO$$3553",
"3333000w0000++XXwwweeXX..XXXddduuuuullii1111%%ddddd+XXOO$$355555",
"533300xvvvxx0+%%X.......XX%%dlluuuuvvllliii344%+OOOOOOO$35555555",
"433xxxvvvvvvxl+%%%XX..XX%%%%%dlduuvllvvvli34444%++OOOOO355555554"
};
