/* XPM */
static char *b53c3b3c88f64f79a3520c2244af70a2reCdWiqxStCkpyzd[] = {
/* columns rows colors chars-per-pixel */
"64 64 7 1 ",
"  c #C97D79",
". c #CD8580",
"X c #D2898D",
"o c #D68F93",
"O c #D99499",
"+ c #DC989E",
"@ c #DF9CA4",
/* pixels */
"     .............ooOOO++OOO++++OOOOOooooooooooooOOOOOOOoooXXX..",
"   ..............oooOO++OOO++++OOOOOOOOoooooooooOOOOOOoooXXX....",
" ..oo...........oooOOO++OO++++OOO+++OOOOOooooooOOOOOoooXX...... ",
"  oOOOoo......oooooOOO+OOO+++++++++++++OoooooOOOOOooXXXX..  .   ",
".   OOOOOOooooooooOOOOOOOOO++++OO++++++++OooooOOoXXXXXX..  ...  ",
"..   OOOOOOoooooOOOOOOOOOOOOO+++OOO+++++OOOOOOOOOooooXXX..   .. ",
".   ..OOOOooooOOOOOOOOO+++++OOOOOO++++OOOOOOOOOOOOooooooX..     ",
"......XOOOooOOOOOOOOOOOO+++OOOOOO+++OOOOOOOOOOOOOOOOoooooo...   ",
".......XOOoOOOOO++++OOOOO++++++OOooooOOOOOOOOOO+++OOOOoooooo....",
".......XoOOOOO+++++OOO++++++++oooooooooOOOOOOO+++++OOOOOOooooo..",
"......XXooOOOOOO++++++++++OOooooooooOOooOOOOOOOOO++++XOOOOOOooo.",
"......XXoooOO+OOO+++++++OOooOOooooOOOOOOOOOOOOO+++++XXOOOOOOOOXX",
"X....XXXoooO++++OO+++OO++OOOOooooO+++OOOOOOO+++++oXXXOOOOOOOXXXX",
"X...XoXoooooO+++++++OOOOOOOoooooO+++++OOOOO+++oXXXXXXOOOOOOXXXXX",
"XX.XooooooOooO++@@++++OOOooooooOOOO++++oooooooooXXXXOOOOOOoXXXXX",
"XXXXoooooOOOoOO++@@+++OOOOoooOOOOO+++oooooXXooXXXXX+++++OOXXoXXX",
"XXXXooooOOOOOO+@@@@@+++OOOOoooOO+++oooooXXXXXXXXXX+++++OOoXoooXX",
"XXXooooO@@OO+@@@@++@@++OOOOOOOO+++oooooXXooXXXX+++++++OOOoXoXoXX",
"XXXooo+@@@@@@@@+++@@+++OOOOOOO+++++oooooXXoo+++++++OOOOOOoooXXXX",
"X.XoXo++@@@@@+++++++++OOOOOOOOOOOO+++oooooOOO++++OOOO++OoooXXXXX",
"..XXXOO+++@@@@+++++OOOOOOOOOOOOOOOO+++++oooOOOO+++++++OOXooXXoX.",
"...XOOOO+++++++++OOOOOOOOOOOO++++OOO+++OOOooOOOOO++++OOOXXoXXoX.",
" ..XooooooO+++++++++OOOOOOOO++++OO++++OOOooOOoooooOOOOOOXXXXoo. ",
" ...XooooooooO++++OOOOOOOO++++++++++OOOOOOOOOOOooooooOOOXXXXoX. ",
"  ....XoooooooooOOOOOOOO++++OO++++OOOOOO+++OOOOOOoooOOOooXXXXX  ",
"    ....ooooooooooOOO+++++OOO+++OOOOoo++++OOOOOOOOoooooooXXXX.  ",
"  ...  ...ooooooOOOOOO+++++OOOOOOOOOOooo++++OOO++OOooooooOXXX  .",
"         ...ooO+++++OOOO++++OOOOOOoooooooo+++OOO+++OoooOOOo....X",
"  .......XXX++++++OOOO++++OOOOOOoooo...ooooo+++++++++OOOOOOooXXX",
" .....XXXXO++++++OOO+++++OOOOOoooo....ooooooo+++++++++++OOOOOoXX",
"...XXXXXOO++++++++++++++OOOOOoooo....oo..ooo++++OOO+++OOOOOOOO.X",
"..XXXXOOOO+++++++++++++++OOOOooo..........o+++OOOO++OOOOOOOX....",
"..X.XOOOO+++++++++OO+++++++OOOo..oo......o+++++OOOOOOOOOX....XX.",
"....XOOOO++++++OOOO++++++++++OOOooooo...o++++++++OOOoo....XXXX..",
"X..XOOOOO+++++++OO+++++++++OOOooOOo...O+++++++++++Ooooo.....XXXX",
"X..XoOOO++++++OOO+++++++OOOOOOOOooooO++++++++++++++OOooooX....XX",
"..XXooOO++O++OOO+++++++++OOOOOOOOOO++++++ooo+++++++++OooXXXXXXXX",
".XXXXooo+OOOOOO+++++OOO+++OOOOOO++++++ooXXXXo+++++++++OoooooXXXX",
"XXXXXooooooOOO++++OOOO+++OOOO+++++++oooooXX..X++++++OOOoooOOOOXX",
"XXXoXXooooOOOO++OOOOOOOOOO+++++++++oXooXXXXX...+++OOOOOOoOOOOOOX",
"XXXoXXooOOOOOooooooOOOOOOOO+++++++oXooX...XXX...OOOOOOOOOO+++OOO",
"XXXooXXooooOOOoooooo++++OOOOO++++OXXX....XX....XOOOOOOOO++++++OO",
"XXXXooXooooooooooo+++++OOO+++++@@@OX..........XOOOOOOOO+++++...X",
".XXXooooooooooo+++++++++++++++++@@@OX.......XOOOOOOOOOOO++...  .",
"...XXooXoooo++++++++++++++@@++@@@@@@OOX...XOOO++OOOOOOooo.....  ",
"..XXXoXXoo++++++++++++++@@@++@@@@+++++OOOOOOO+++++OOOooo..      ",
"XXXXXXXoO++++OOO+++++++@@@@@@@++++++++++OOOOOOO++++OOOoo...    .",
".XXXXXOO+++OOOO+++++++@@@@@@@@@+++++++++++++OOOO++++OOOOo.     .",
"..XXXOOOOO++OO++++++OOO+@@@@+++++++++++++++OO+++++++OOOOOo..  ..",
".XX.OOOOOOOOO+++++OOOOOOOO+++++++++++++++++++++++++++OOOOOoo....",
".....OOOOOOOOOXXXXXXoooOOOOO++++++++++++++++++++++OOOOooOOOooo..",
"......OOOOOOXXXXXooooOOOOOOOO+++++OOOO++++++++++OOOOOooOOOooooo.",
"....XOOOOOX...XXooooXXXooOOOOOOO+++OOOOO++++++OOOOOOoooooooo....",
"..XOOOOOoo...XXXXXXooXXXoooOOOOOOOOOOOO+++++OOOOOOOOOoooo..oo...",
"......ooooo.......XXXXXoooOOOOOOOOO+++++++++++OOOOOOOOo.........",
"........ooooo......XXXooOOOOOOOOOOOOOO++++++OOOOOOOOOOOOoo......",
".......OOOooooo...oooOOOOOOOOOOOoooooOOOOOOOOOOOOOOO++OOOOooo...",
"......oOOOOoooooooo+++OOOOOOOOOOOoooooooOOOOOOOOO++++OOOOOOOooX.",
"....ooOOOOOOooooOO++++++OOOOOOOOOOoooXXXoooOOOO+++++OOOOOOOOOOXX",
"..oooooOOOOOOOO++OOO++OOOOOOOOOOOOooooXXXXoooo++++OOOOOOOOOOOOXX",
".   ..ooOOOOOO++OOO+++++OOOOOOOOOOOoXXXXXXXXooooOOOOOOOOOOOOOXX ",
"..      oOOOOOO++++++++++++OOOOOOOOXXXXooXXXXoooooOOOOOOOOOOOXX ",
"....      oOOOOOO+++++++++++OOOOOOOOXXXXooooooooooooOOOOOOOOXX  ",
"      .......oOOOOOOO+++++++OOOOOOOOooXXXXooooooooooooOOOOOXX   "
};
