/* XPM */
static char *c07cf966a0e346f7e00a2db47e4d6e91Ge3IgLYu7qrFq8sr[] = {
/* columns rows colors chars-per-pixel */
"64 64 8 1 ",
"  c #CD8580",
". c #C97D79",
"X c #D2898D",
"o c #E7BEB4",
"O c #E6B5AD",
"+ c #E7C7BB",
"@ c #DD9D97",
"# c #E1A8A1",
/* pixels */
"           .......     ....................             XXXX    ",
"            .......      ....    ............      XX    XXXXX  ",
"        ..........          ..    .........      XXX   XXXXXXXX ",
"          ......                ........          XXXXXXXXXXXXX ",
"    oooooooooOOOooooOOOOoooooooOOoooOOOOooooOOOOOoo+++ooo+ooXXX ",
"    oooOOooooooooOOOOOOOOOOoooooooOOOOooooOOooOOoo++oo+o+++oXXXX",
"    oo       @@@@@@@##@@######@@@@@#################@@@@@@++XXXX",
"  X oO     @@  @@@@@@@######@@@@@##@@#############@@##@@@@++ XX ",
" XXXOo  ooooooooooooooooOOooOOoooOOooOOOoooooooooo++oo++@@++  X ",
" X XOo  oooooOOOOOOoooooooOOOOOooooOOOooOOOooooooooo++++@@++    ",
"   XOO  ooOOOOOOOOoooOOOOOOOOOOOOOOOOOOOOOOOOOoooOOOOO++@@o+    ",
"   XOO  ooOOOOOOOOOOOOOOOOOOOOOOOOOOOOOOOOOOOOOOOOOOOOo+@@o+.   ",
"   XoO@ oOOO @@     @@@@##@@####@@@####@@###@@@@@@@@OOo+#@oo.   ",
"  XXoO@ oOOO      @@  @@@@####@@@@#######@@@@@@@@  @OO+o#@oo.  .",
"X XXoo @oOOO@ ++++ooo++++ooOOooOOoOOooooOOooooo+++@ OO+o##oo. ..",
"XXXX+o @ooOO@ ++oo++ooo+++oooOOOOOoooooOOOOOoo++++@ OOoo##oo. ..",
" XXX++@@ooOO@@+oOOOOOOOOOOOOOOOOOOOOOOOOOOOOOOOO++  OOo+##oo... ",
" XXX++@@oooO@@+oOOOOOOOOOOOOOOOOOOOOOOOOOOOOOOOO++  OO++##oo... ",
"  XXo+#@oooO@@ooOO@@@@@@@@##@@@#####@@@####@@@OO+o  OO+o@#oO..  ",
"  X o+#@oooO @oOOO @@@@@@@@@######@@@@###@@@@@OO+o @OOoo@#oO..  ",
"    oo@#oOoO@ OOOO@ oooooOOooOOooOoo++oo++++@@OOo+@@OOoO@@Oo..  ",
"    o+@#oOOO@ oOOO@ oooOOOOOoooOOOOOOo++oo++@@OOo+@@OOoO@#Oo.   ",
" .  ++##oOOO  ooOO  ooOOOOOOOOOOOOOOOOOOOOo+@@OOoo@ OOOo@#OOXX  ",
"..  ++##oOOO  ooOO  ooOOOOOOOOOOOOOOOOOOOOoo@@OOoo  OOOo@@OOXXX ",
"..  +o#@OOOO@ OoOO @oOOO######@  @@     OOoo@@OOOo @OOOO@@OoXXXX",
"... +o#@OOOO@@OoOO@@oOOO####@@  @@ @@   OOoO#@OoOo@ OOOO@@OoXXXX",
". . oO@@OOOO@@oOOO@@OOOO##OOOOOOOOOOOO  OOoO#@Oooo@ OOOo@#ooXX X",
".   oO@@OOOO@@oOOO @OoOO##OOOOOOOOOOOO@ OOOo@#OOoo@@OOOo@#ooXX  ",
". . OO@@oOOO@@OOOO  ooOO@#OO########OO@@OOOo@#OOoo#@OOoo#@ooX  .",
"... OO@#oOOO@@OoOO  oOOO@#OO######@#OO@@OOOO##OOOo#@OOoo#@ooX  .",
"... OO@#ooOO@@OoOO@ oOoO@@OO##OOOO#@OO#@OOOO##OOOo@#OoO+##oOXX..",
"....OO#@ooOO@@OoOO@ oOoO@@OO##OOOO#@OO#@OOOO#@OOOo@#OoO+##oOXX..",
"....Oo#@oooO@@oOOO@@ooOO@#OO##OOOO@@OO@#OOoO#@OOOO@#OOO+##oOX ..",
"....Oo##oooO#@oOOO@@ooOO@#OO##OOOO@@OO@#OOoo@#OOOO##OO++##OOX...",
".. .Oo##oOoO#@ooOO@@oOOO#@OO#@#####@OO##OOoo@#OOOO##OO+o##Oo ...",
".. .oO##oOoO@#ooOO@@oOOO#@OO##@@@@@@OO##OOoo@@OOOO##OO+o##Oo ...",
".   oO##oOOO@#oooO@@OOOO##OOOOOOOOOOOO@#OoOo@@OOOo##OOoo##Oo....",
".   oo#@OOOO@#oooO@@OOOO##OOOOOOOOOOOO@#OoOo#@OOOo##OOoo##OO....",
".   oo# OOOO##oooO@@oOOO######@@     @@@OOOo##OOOo#@OOoO##OO....",
"..  oo@ OoOO#@OoOO@@+OOO####@@  @@    @@OOoo##OOoo#@OOoO@#OO....",
"..  oo @ooOO@@OoOO@@+oOOOOOOOOOOOOOOOOOOOOoo@#OOoo#@OOOo@#OO.. .",
".   oo @oOOO@#OoOO@@++OOOOOooOOOOOOOOOOOOOoo@@Oooo@#OOOo#@OO.  .",
"    oO  OOOO@#oOOO@@+++oo++oOOooOOOoooOOOooo#@Ooo+@#OOOO#@OO.   ",
"    oO  oOOO#@oOOO@@++++++ooooOOOooooOOOoooo##OO++@@OOOO@@OO  . ",
"    OO@ oOOO#@oOOO@@@@@@@@@@       @###@@#####OOoo@@OOoO@@OO  ..",
"    OO@@OoOO##OOOO@@@@@@@@  @@   @@@@@@#######OOoo@@OOoO@@OO  ..",
"    OO@@OoOO@#OOOOOOOOOOOOOOOOOOOOOOOOOOOOOOOOOOo+@@OOoo@#OO   .",
"    OO@@ooOO@@OOOOOOOOOoooOOOOOOOOOOOOooOOoooOOO+o@@OOoo@#OO   .",
"    OO@@oooO @OOOooo++++ooooo++oOOOooOOOoooo+++++o@@OoOo##OO    ",
"    oO @oooO@ OOoo++++oo++o+++oOOoooOOoooo++oo++++@@OoOo##OO    ",
"    oO @oOoO@  @@@@    @@@##@@##@@@@########@@@@@@@@OOOo#@OO    ",
"   .oo @oOOO     @ @@   @@@@#####@@@@@####@@##@@@@@@OOoo#@OO    ",
"  ..Oo@ oOOOOOOOOOOOOOOOOOOOOOOOOOOOOOOOOOOOOOOOOOOOOOoo@#Oo    ",
"  ..Oo@ oOOOOOOOOOOOOOOoooOOOOOOOOOOOOOOOOOOOOOOOOOooooo@#Oo    ",
"  ..oO  ooOOOOOoooOOoooooOOOoooooOOOOOOooooOOOOooooOOooo@@oO    ",
"   .oO  ooooOooooOOoooooooooooooooooOOoOOoooOooooooooooo@@oO    ",
".  .oo   @@@####@@@@@#####@@@@@##@@@@@@@########@@@###@@@@oo    ",
".. .oo    @@@@#@@@######@@####@@@@@@@@########@@@@##@@@@@@oo    ",
".. .OoooooOOOoooOOOOOOOOOoooOOOOOoo++++++OOOOOOOooooooOOOooo    ",
"....OoooOOooooOOOOOOOOOOoooOooOoo++oo++OOOOOooooOOOooooooooo    ",
" .......  XXX   XXXXXXXXXX       ......                         ",
" .....         XXXXXXXX       .......    ..                     ",
"  ..........      XXXXXX    ...........   ...                   ",
"    ...........     XXX    ...................                  "
};
