/* XPM */
static char *d9fd907d83154a59b2ed2d3d5905dc5c89MhsKJq5mRbOOti[] = {
/* columns rows colors chars-per-pixel */
"64 64 8 1 ",
"  c #D4648D",
". c #D4648E",
"X c #D66690",
"o c #D5648E",
"O c #D6658F",
"+ c #D66790",
"@ c #D3648D",
"# c #D6668F",
/* pixels */
" .XXXoX XOoOXXoo .XXXoX XOoOXXoo .XXXoX XOoOXXoo .XXXoX XOoOXXoo",
"oOoXO XOo+OOOX+ooOoXO XOo+OOOX+ooOoXO XOo+OOOX+ooOoXO XOo+OOOX+o",
"OXOoo+X OO.OO.oXOXOoo+X OO.OO.oXOXOoo+X OO.OO.oXOXOoo+X OO.OO.oX",
"OXO.XoXooO.+X+OOOXO.XoXooO.+X+OOOXO.XoXooO.+X+OOOXO.XoXooO.+X+OO",
"oooOOXo.XOXoOo+OoooOOXo.XOXoOo+OoooOOXo.XOXoOo+OoooOOXo.XOXoOo+O",
"oOOOOOooOoOO.XO oOOOOOooOoOO.XO oOOOOOooOoOO.XO oOOOOOooOoOO.XO ",
"oXO+XXo.XooOOOOOoXO+XXo.XooOOOOOoXO+XXo.XooOOOOOoXO+XXo.XooOOOOO",
"+O+XOoOOXo@ooo@X+O+XOoOOXo@ooo@X+O+XOoOOXo@ooo@X+O+XOoOOXo@ooo@X",
"OXXO +OoOXXoOOXOOXXO +OoOXXoOOXOOXXO +OoOXXoOOXOOXXO +OoOXXoOOXO",
"OOoX+OXOoo+OoOO@OOoX+OXOoo+OoOO@OOoX+OXOoo+OoOO@OOoX+OXOoo+OoOO@",
"+. XO.XoOXO  OOo+. XO.XoOXO  OOo+. XO.XoOXO  OOo+. XO.XoOXO  OOo",
"oOO+oXOXXX XoO.XoOO+oXOXXX XoO.XoOO+oXOXXX XoO.XoOO+oXOXXX XoO.X",
"oOOoOoXX XXOOOXOoOOoOoXX XXOOOXOoOOoOoXX XXOOOXOoOOoOoXX XXOOOXO",
"XOOoOoXoOXoXXo oXOOoOoXoOXoXXo oXOOoOoXoOXoXXo oXOOoOoXoOXoXXo o",
"OoOo.oOO X.OoXoOOoOo.oOO X.OoXoOOoOo.oOO X.OoXoOOoOo.oOO X.OoXoO",
" +oO+.XOX+#+Xoo  +oO+.XOX+#+Xoo  +oO+.XOX+#+Xoo  +oO+.XOX+#+Xoo ",
" .XXXoX XOoOXXoo .XXXoX XOoOXXoo .XXXoX XOoOXXoo .XXXoX XOoOXXoo",
"oOoXO XOo+OOOX+ooOoXO XOo+OOOX+ooOoXO XOo+OOOX+ooOoXO XOo+OOOX+o",
"OXOoo+X OO.OO.oXOXOoo+X OO.OO.oXOXOoo+X OO.OO.oXOXOoo+X OO.OO.oX",
"OXO.XoXooO.+X+OOOXO.XoXooO.+X+OOOXO.XoXooO.+X+OOOXO.XoXooO.+X+OO",
"oooOOXo.XOXoOo+OoooOOXo.XOXoOo+OoooOOXo.XOXoOo+OoooOOXo.XOXoOo+O",
"oOOOOOooOoOO.XO oOOOOOooOoOO.XO oOOOOOooOoOO.XO oOOOOOooOoOO.XO ",
"oXO+XXo.XooOOOOOoXO+XXo.XooOOOOOoXO+XXo.XooOOOOOoXO+XXo.XooOOOOO",
"+O+XOoOOXo@ooo@X+O+XOoOOXo@ooo@X+O+XOoOOXo@ooo@X+O+XOoOOXo@ooo@X",
"OXXO +OoOXXoOOXOOXXO +OoOXXoOOXOOXXO +OoOXXoOOXOOXXO +OoOXXoOOXO",
"OOoX+OXOoo+OoOO@OOoX+OXOoo+OoOO@OOoX+OXOoo+OoOO@OOoX+OXOoo+OoOO@",
"+. XO.XoOXO  OOo+. XO.XoOXO  OOo+. XO.XoOXO  OOo+. XO.XoOXO  OOo",
"oOO+oXOXXX XoO.XoOO+oXOXXX XoO.XoOO+oXOXXX XoO.XoOO+oXOXXX XoO.X",
"oOOoOoXX XXOOOXOoOOoOoXX XXOOOXOoOOoOoXX XXOOOXOoOOoOoXX XXOOOXO",
"XOOoOoXoOXoXXo oXOOoOoXoOXoXXo oXOOoOoXoOXoXXo oXOOoOoXoOXoXXo o",
"OoOo.oOO X.OoXoOOoOo.oOO X.OoXoOOoOo.oOO X.OoXoOOoOo.oOO X.OoXoO",
" +oO+.XOX+#+Xoo  +oO+.XOX+#+Xoo  +oO+.XOX+#+Xoo  +oO+.XOX+#+Xoo ",
" .XXXoX XOoOXXoo .XXXoX XOoOXXoo .XXXoX XOoOXXoo .XXXoX XOoOXXoo",
"oOoXO XOo+OOOX+ooOoXO XOo+OOOX+ooOoXO XOo+OOOX+ooOoXO XOo+OOOX+o",
"OXOoo+X OO.OO.oXOXOoo+X OO.OO.oXOXOoo+X OO.OO.oXOXOoo+X OO.OO.oX",
"OXO.XoXooO.+X+OOOXO.XoXooO.+X+OOOXO.XoXooO.+X+OOOXO.XoXooO.+X+OO",
"oooOOXo.XOXoOo+OoooOOXo.XOXoOo+OoooOOXo.XOXoOo+OoooOOXo.XOXoOo+O",
"oOOOOOooOoOO.XO oOOOOOooOoOO.XO oOOOOOooOoOO.XO oOOOOOooOoOO.XO ",
"oXO+XXo.XooOOOOOoXO+XXo.XooOOOOOoXO+XXo.XooOOOOOoXO+XXo.XooOOOOO",
"+O+XOoOOXo@ooo@X+O+XOoOOXo@ooo@X+O+XOoOOXo@ooo@X+O+XOoOOXo@ooo@X",
"OXXO +OoOXXoOOXOOXXO +OoOXXoOOXOOXXO +OoOXXoOOXOOXXO +OoOXXoOOXO",
"OOoX+OXOoo+OoOO@OOoX+OXOoo+OoOO@OOoX+OXOoo+OoOO@OOoX+OXOoo+OoOO@",
"+. XO.XoOXO  OOo+. XO.XoOXO  OOo+. XO.XoOXO  OOo+. XO.XoOXO  OOo",
"oOO+oXOXXX XoO.XoOO+oXOXXX XoO.XoOO+oXOXXX XoO.XoOO+oXOXXX XoO.X",
"oOOoOoXX XXOOOXOoOOoOoXX XXOOOXOoOOoOoXX XXOOOXOoOOoOoXX XXOOOXO",
"XOOoOoXoOXoXXo oXOOoOoXoOXoXXo oXOOoOoXoOXoXXo oXOOoOoXoOXoXXo o",
"OoOo.oOO X.OoXoOOoOo.oOO X.OoXoOOoOo.oOO X.OoXoOOoOo.oOO X.OoXoO",
" +oO+.XOX+#+Xoo  +oO+.XOX+#+Xoo  +oO+.XOX+#+Xoo  +oO+.XOX+#+Xoo ",
" .XXXoX XOoOXXoo .XXXoX XOoOXXoo .XXXoX XOoOXXoo .XXXoX XOoOXXoo",
"oOoXO XOo+OOOX+ooOoXO XOo+OOOX+ooOoXO XOo+OOOX+ooOoXO XOo+OOOX+o",
"OXOoo+X OO.OO.oXOXOoo+X OO.OO.oXOXOoo+X OO.OO.oXOXOoo+X OO.OO.oX",
"OXO.XoXooO.+X+OOOXO.XoXooO.+X+OOOXO.XoXooO.+X+OOOXO.XoXooO.+X+OO",
"oooOOXo.XOXoOo+OoooOOXo.XOXoOo+OoooOOXo.XOXoOo+OoooOOXo.XOXoOo+O",
"oOOOOOooOoOO.XO oOOOOOooOoOO.XO oOOOOOooOoOO.XO oOOOOOooOoOO.XO ",
"oXO+XXo.XooOOOOOoXO+XXo.XooOOOOOoXO+XXo.XooOOOOOoXO+XXo.XooOOOOO",
"+O+XOoOOXo@ooo@X+O+XOoOOXo@ooo@X+O+XOoOOXo@ooo@X+O+XOoOOXo@ooo@X",
"OXXO +OoOXXoOOXOOXXO +OoOXXoOOXOOXXO +OoOXXoOOXOOXXO +OoOXXoOOXO",
"OOoX+OXOoo+OoOO@OOoX+OXOoo+OoOO@OOoX+OXOoo+OoOO@OOoX+OXOoo+OoOO@",
"+. XO.XoOXO  OOo+. XO.XoOXO  OOo+. XO.XoOXO  OOo+. XO.XoOXO  OOo",
"oOO+oXOXXX XoO.XoOO+oXOXXX XoO.XoOO+oXOXXX XoO.XoOO+oXOXXX XoO.X",
"oOOoOoXX XXOOOXOoOOoOoXX XXOOOXOoOOoOoXX XXOOOXOoOOoOoXX XXOOOXO",
"XOOoOoXoOXoXXo oXOOoOoXoOXoXXo oXOOoOoXoOXoXXo oXOOoOoXoOXoXXo o",
"OoOo.oOO X.OoXoOOoOo.oOO X.OoXoOOoOo.oOO X.OoXoOOoOo.oOO X.OoXoO",
" +oO+.XOX+#+Xoo  +oO+.XOX+#+Xoo  +oO+.XOX+#+Xoo  +oO+.XOX+#+Xoo "
};
