/* XPM */
static char *ef53c383a69e414dbba765401dd6ebf9ejdSuPoi3Z4UeYLm[] = {
/* columns rows colors chars-per-pixel */
"64 64 99 2 ",
"   c #C97897",
".  c #CD7799",
"X  c #D37F9F",
"o  c #D87EA2",
"O  c #D580A1",
"+  c #D982A4",
"@  c #DB82A6",
"#  c #D884A4",
"$  c #DB85A6",
"%  c #DC84A6",
"&  c #D78BA5",
"*  c #DC88A7",
"=  c #DC83A8",
"-  c #DD86A8",
";  c #DF8AA9",
":  c #DF8EAA",
">  c #D892A9",
",  c #DD92AB",
"<  c #DF92AC",
"1  c #DF97AF",
"2  c #DD9DB3",
"3  c #DD9FB4",
"4  c #E185AC",
"5  c #E088AA",
"6  c #E18DAB",
"7  c #E18BAC",
"8  c #E489AE",
"9  c #E18CAC",
"0  c #E48EAF",
"q  c #E390AE",
"w  c #E490AF",
"e  c #E094AE",
"r  c #E292B0",
"t  c #E490B0",
"y  c #E295B0",
"u  c #E594B2",
"i  c #E794B4",
"p  c #E891B3",
"a  c #EA93B6",
"s  c #E895B5",
"d  c #E499B2",
"f  c #E69BB5",
"g  c #E29FB7",
"h  c #E79EB7",
"j  c #EA99B7",
"k  c #E89CB6",
"l  c #ED93B8",
"z  c #ED94B8",
"x  c #EB9BBA",
"c  c #EE9ABB",
"v  c #EB9DBA",
"b  c #F09EBE",
"n  c #E0A2B8",
"m  c #E5A3BA",
"M  c #E3A4BA",
"N  c #E4A5BB",
"B  c #E6A6BC",
"V  c #E8A2BA",
"C  c #E8A5BB",
"Z  c #EBA3BC",
"A  c #EDA2BD",
"S  c #EBA4BD",
"D  c #EDA5BF",
"F  c #E6A8BE",
"G  c #EAA9BF",
"H  c #F29DC0",
"J  c #EFA5C1",
"K  c #E6ABC1",
"L  c #EAABC2",
"P  c #EEAAC3",
"I  c #E8AFC3",
"U  c #EEABC4",
"Y  c #EBACC4",
"T  c #EFAEC5",
"R  c #F1A5C1",
"E  c #F6A7C5",
"W  c #F0AAC4",
"Q  c #F0AFC6",
"!  c #F1AFC6",
"~  c #F7ABC9",
"^  c #E6B2C5",
"/  c #EBB3C7",
"(  c #EEB1C7",
")  c #EFB4C9",
"_  c #EAB8CA",
"`  c #E9BCCE",
"'  c #ECBCCE",
"]  c #F3B2CB",
"[  c #F6B6CE",
"{  c #F4B8CE",
"}  c #EEBED0",
"|  c #ECC1D1",
" . c #EBC4D3",
".. c #EBC4D4",
"X. c #EDC5D4",
"o. c #F1C3D4",
"O. c #F1CBDB",
"+. c #F4CDDC",
"@. c #F7D1E0",
/* pixels */
"< < < u u t t q t t - - - y y S S u u u u u u | - z M M M ( r r < ; ; 5 W 5 s s s ' ' q q q T T ; @.@.@., , , j 9 ; 9 ; 9 9 9 ; ",
"< < < u t q t n n t n - - h d 6 S S u u u u u | | - u M M M r < u 5 < u ; s s f f f f o T T +.T / B ; B 6 j @ j 9 ; ; t 9 9 ; ; ",
"< f < t t t P t q - - ; h y h d x u t _ H H H k k 7 o u u M ( u ; u ; v ; G W f ' @ q X T T T +.+.; / 6 @.6 @ @ 9 t t ; ; ] ] ; ",
"u u u O.t P c P r n ; ; t t t x d x H H t k k H 7 ` ` f u ( ( < u u ; ; v ; W f G X f o o P +./ +.B / B 6 @ 6 @ @ u u ] v ] ] t ",
"P O.P O.f o o r o r V V t d t S > x u u u u k H h ` ` u f { ( ( P P P ; ; v : G X f X X P - % P : 6 / B 6 6 @ 6 6 u t v v ] @ t ",
"P y O.c c o t o r r Y t V S S S S > 6 6 u u 9 A j 7 ` u u u ( : u : = : = : X X X X X % o % : : % % ! 6 6 [ [ . 6 m K P v @ , , ",
"y y O.h c c t r r V Y Y V ; f f S 6 6 $ 9 9 B j % % $ P u : u { : P y : m ~ : ~ U U U i % i : j j $ 6 ! S S [ . [ m P P P , @ @ ",
"y h q % % v t t y y D D ; f T T _ _ 6 6 j 9 j u ` 1 % P u u : : : : t Z m ~ ~ q j j - U D % T $ $ $ ! ! S u B % m m K 4 f f $ , ",
"Z y h h q v v q y D D Y i i i m T 6 $ $ j u u u u 1 1 u : P : Z : : q q m v ~ j t U U D i i i T T $ m ! B B u u . % K K 4 $ 4 $ ",
"N t N q t m q ~ q D U i D i i T $ ! m ! $ ! u u j % 1 K K 4 N Z N N q % % v q y t q i y i f ; i T $ m 6 B 9 j u t t % 1 P u 4 $ ",
"Z N q t m ~ m j q j D U ..i j $ T ! % ! B S u u % 6 % 4 P , $ f h h q % c % t y y j t i ; i f f > > 6 6 $ u 9 j u % P 4 u u u : ",
"N . t t t ~ G q X q X ......j $ $ % $ ) ) ! u [ m K K K K v v N , O.O.c c % % t r j j ; V f f f > u 6 6 6 9 A ` t P t P u f f : ",
"N . . = : : ~ ~ q U - ..% ..: : ! $ 6 6 [ ) [ [ . 6 6 v K P f , h @ c h t o r t V y y n t t ; f _ > _ 9 9 J A A A $ ` u $ u { { ",
"- . ; v : v G G X X o % - % +.+.+.+.% 6 ) ) [ @ t t P P v v @ , , f O.O.c P t o t r n ; ; S f ; x _ u J J H k ` ` ` o o f { ( ( ",
". . = ; v v v v G f X - P +.+.: +.B 6 6 6 6 ) [ 9 P ] P ] t v t t f c f t f q q n n ; - t d t x x x t H H A A k k 7 7 o u u u { ",
"- S - W v v W v v f q o q P +.+.X./ / 6 6 6 6 6 9 9 ; ] ; v t ; - - - f t f t q q ; V ; h 6 d 6 6 x t t t k H | k - o o u M r r ",
"S ; 5 v W W W v f o q T o X.X.X.X.@.@.@., - j j 9 9 9 ; ] 0 ] - - u f f q u u u t t t - h h h 6 S t t u u u u | 7 - - z o u r ( ",
"S 5 h 5 5 W u ' ' 5 5 q q m m : X.@.@.@.- - - J 9 9 ; 9 ; ; - S - u S u t q q u t d ; 6 m h 6 6 6 S ; - u u | V | - z V z M M A ",
"S 2 2 5 W u u 6 6 q q 5 m m : X.: f f 0 ; J - - J V V ; 0 A A V 2 2 h u q u q u 6 6 N N 5 y 6 : : S u u ; - J | J V 0 z M A A A ",
"t 2 v     u u u u 5 5 m m S : 8 ; ; ; ; ; ; - - V V E E h ; V u 2 h h u t q 5 u u g N 6 : m m 6 f f ; ; q q I J V V r 0 0 A A O.",
"2 t v v     A A , , 5 7 S m w w 8 ; ; 8 0 0 u V u L L h : h h u 2 2 t y v R R 6 R g 5 m S 5 S u f ' T ; - J I r r r o 0 c c O.A ",
"t v t v   } : A , , , 7  .w S w w f - u p - - b u L F : 2 h h u u h y h v v d R 5 , 5 a } } : u u = = T o q I I r o r o c c f f ",
"t v D   }   : : , L 7 V  . .w w ; ; p p u 0 u F u F F F : 2 u 2 t y t t d ; v 5 R e g 5 u 5 : } = ' = T o s @ @ I r P o o t t h ",
"d u d } 6 : : 9 9 9 L  .h  .v ; v v g u u b b b F F F F 2 2 2 u 8 u ; C ; R v R 5 e a a 5 a u u = = o s o s s j j q P t P t t f ",
"8 0 D u u } ! ! ! V h h h v v , v ; a S u b u F b = = : : : I s I C - C ; ; ; 5 5 5 e 5 5 3 u 3 ( = o K K j @ j n t n t t t t h ",
"- P u u u & & & 9 9 h v v R d , 5 a g S S S S : ' ' = = s q I I 8 - - ; - ; v e v e e A h 3 ` ( ( ( K ^ ^ ^ ^ t j t q q q u u V ",
"8 - u $ 6 $ $ * * 9 * h d R R R 5 5 5 S S } S : o ( ( = s ^ I - f I C - C < v v v V V 5 q ` 3 ` f f K h h O j l l l q , q q u u ",
"- - - L P q & & - * y C d d v 5 e 5 5 5 S } } ' = ' ( ^ ^ @ @ ^ P - - ^ - ^ < < o.V h V q 5 ` f f v = ; ; h h C l l l h q q q V ",
"P P P L $ q h h - - y C d d d v 5 e e e } h h h q u K ( V s ; s P ; j @ j o.< o.( ( A A q 5 e e e v v v ; O ; O - , - h h q q L ",
"P O P L L q h f - - C q ; ; ; v 5 o.< 3 a l h l h ( V V ^ ^ s j ; ; j ^ ^ s < = u h h u h } q e 5 v v v ; ; y * - h - q & L q L ",
"O P h h q f q f f q q q A A v V < o.< < l - , l l q , V V ^ ^ ; j < @ s s ^ = o = u h h h } e S 5 5 R R R y d y y * & & & P P P ",
"r h h h = f f f f ` ` u A u u S 5 < < - - - l l ( q q K ^ ; ; ; ; @ s @ s T s o u u ' S S ' a S a 5 5 R v d d y h 9 & & & u P u ",
"r r r M f z f f | u u u u u u S < 6 6 y - - - q q t q q u u ; ; < @ I s T F T T T ' S S b b S S g , , v v v h 9 h ! 9 ! u u u P ",
"( u M u u 7 - - | | u u u t S S d 6 d y y h n n P q t f t u < u I I @ 2 s T F F ' F S ' u u S S ; g , v , v h V 9 9 L ! } } 6 u ",
"( ( u u z o 7 7 k k k H u S x d d d d t t n V t n q t f u O.O.< u u I : T F E F F u ' b b c S v ; g ; ,  . .v V L 9 9 } } } } D ",
"{ u { o u o $ ` k A k J t t x S d d S V y r r V P t P c t P P u u P u u h T F F E u : b b u v v 8 8 r r r S V V V , : } }   D D ",
"( u ( $ f $ 7 A A H J J J t x d d t t r r ; r V P t % h t O.P u u y 2 u h h E E E E u u v c d 7 ; 8 8 r S  .7 7 V A , A }   v v ",
": : f u f $ ` ` A A J 9 u u _ > t > S m V V r r o o t t O.y P y y h u h h h h E y L y b v 0 9 F 8 b 8 w b S v 7 , , r r A   v v ",
"{ { f $ $ ` P f j j j u 6 u 6 > f Z V ; r r q V % o % o O.h h y y h h h h % E t y 2 u 2 2 0 F t F c w b S u v , ; A A r  .  v V ",
"F : : u u P 2 2 j d 9 6 } > } f f ; ; q ; ; q t % q o o O.h h y y h h v % ; t ; y ; y 2 h : p F E F b u 0 u p ; ; 8 w r  .S V V ",
": F F : F : : j j D d } } : 6 L L L ; Z Z q q y q u j D h : y : : 9 u v u v t t  . .r S h h F L L L b u u p u ; 8 8 q w S  .S 7 ",
"$ $ F U : 2 2 2 m d d D } : : A : A L Z Z v v v t j u D h L : : L b u u v ; v ; r S S  . .V V 0 0 L L 0 u 0 p 8 f 8 q w S S S 7 ",
"$ U $ F : ~ ~ ~ ~ t t N N N , ,   L L h h h t A t q E 9 0 : L : u u 0 u v v f ; 8 :  .m V V V E V L J J 0 - - ; f : f m S m 5 5 ",
", , $ U U q q ~ G = t N N N , , A u 5   t t v 2 V u m h h 0 u E u u J p p 8 r f f : :  .S ; 0 0 V V J J - - - ; f ; X.: m 5 q q ",
"$ - $ - X G X G G m : = = N 6 6 6 W 5 5 5 t 2 2 A A V V 0 E 0 E u u ; J ; ; 8 f f 8 m m ] t 9 V 9 j j J - , , ; ; ; X.X.T q T 5 ",
"@ , - o X X v G v : ; = . 6 6 s 6 W 5 5   5 2 2 A A A ; 0 E E V V J J ; - ; ; : ; X.m : m ] ] ; t 9 @ , , @.@.; ; X.X.X.+.q o o ",
"@ @ o - - f f : G = ; ; ; ' - ' s W v W h 5 - - V V V ; ; 0 9 V J j , , @.@.f X.X.m m ] ] ] ] ; u @ @ j @ 6 6 B ; / +.+.P q o o ",
"@ q @ o f f s s v ; ; 5 S - - f v W v ; 5 5 2 S - ; 9 9 9 9 u 9 9 j j - @./ ; ; +.T : v ] v t t u @ @ ) [ 6 6 B / +.% P : P P o ",
"t @ t o ' f v s W ; 5 5 5 S ' G ' v v v W S = t ] 9 9 ; 9 u 9 [ 9 , 6 , 6 B / / X.: X.v % P P P 6 [ [ @ [ ) B 6 6 : : +.% P - - ",
"t ; q ' ' ' s W u h h S S S X X f : v ; = - - - ; t t @ ] u 9 u 9 , 6 6 6 6 / X.% % T % % K f P P 6 [ S 6 6 6 6 $ $ : : % - - - ",
"t 5 t q 6 u s u u h 5 h h f X X f : v = t = t @ . @ @ ] v t t u [ . . 6 6 % % % P : ..% % v 4 P 6 . [ [ [ 6 ! $ $ $ j : ......- ",
"A 5 7 5 7 u 6 d A   v h 2 t 2 X X q ; = m . = t , @ @ P t m P m [ [ [ ! ! 6 % $ j % f f ..1 4 K 1 u u . . S ! $ ! T $ T ..U U U ",
"A A 7 5 , , ,       v t t q t ~ X G v = v N t N . @ v @ v v m . m [ . ! ! ! % $ % m f ..f u K % % % . u u S ! $ m j j j T ..D D ",
"A 7 u 7 , A L }       t t q t q ~ q ~ t t v t Z $ $ $ 4 4 K K m u . S B ! ! m m $ m f % f P P 1 P % j u u 9 B m m m T i T ; i Y ",
"u A V V , L L :   | v d d t j t j q v ~ v Z Z $ Z $ f 1 K K % % % . u S B ! 6 m m ! T T i u u t % t j 9 B B 9 6 6 f m f T i D Y ",
"u u h L L L 9 ! ! | u u D d d j j g S t q Z Z Z Z T T 1 K q q 8 I 8 8 u m $ ! ! T ! i u P P $ $ $ j t j A J u _ > > S S t t Y Y ",
"u v V h 9 9 ! ! 6 6 6 u 8 d j 5 j g a q S } : S ' $ ' o 1 @ I I u u u P $ 6 * ! ! T i f $ P P ` ` A j 9 A 9 u > 6 _ S t S V ; V ",
"v v y h 9 * 9 6 6 $ u 8 8 8 8 5 5 j S a S S S : ' ' o 1 s @ @ I 8 8 - 6 ! $ m & * 9 9 ( f f $ $ 7 A k k k t t x x d _ d S t t V ",
"d y y 9 9 * * 6 $ $ P 8 8 , R v 5 a e S : : : u u ' = o s s @ P P u u P ! & $ * h - ( u f f u o o 7 A k A t J u t x d d h t ; ; ",
"d ; d y y * & h & $ L L - P v R e 5 e S 3 h u ( = o ' K ^ @ s - @ P P P 6 $ & * ! r r * ( ( 7 7 7 7 k u H H u x x d x y d ; ; ; ",
"; y C - - & & q q q q L P v P e 5 5 5 a 3 3 3 u f = f o s @ @ - - L L $ L q & - h * - r ( ( = z - - | H H u u t S 6 d y 6 - - - ",
"< ; C C - , , q q q V P P ; ; V v e a a q 3 f f ( ( K K O j j P @ j L P h L - q - ( ( r r M z = z ` | q | q u u S 6 6 y < - - - ",
"< < - - l h h q , q V V L o.o.o.V V A A 3 3 h ` f ` f h ^ = O ; P P L L h h q l - l r r = h = z = | ` ` u A A A V V o.< o.- - - ",
"< - - l l l l , q q V V ; ; o.o.A e A A A q ` ` f ` = h = j O ; O ; V V q q q q l O - h h h = = = f f q ` q A V V V o.o.< < < - "
};
