/* XPM */
static char *_bb4d678710f44be94e13f698796ce97mqWnLCxs7lWOY9Xn[] = {
/* columns rows colors chars-per-pixel */
"64 64 5 1 ",
"  c #686868",
". c #747474",
"X c gray50",
"o c #808080",
"O c gray56",
/* pixels */
"X.................XXXXXXOOOOOXXX   XXXOOXXXXXX..............XXXX",
"XXX...XXX............XXXXOOOOO.      OOOOXXXXXXXX..........XXXXX",
"XXXXXXXX...........XXXOOOOOOOOOOOO.   .OOOXXXXX...  .........XXX",
"XXXXXXXXXX.....XXXXOOOOOOOOOOOOO..  ..OOOOOOX......   .........X",
"XXXXXXXXXXXXXOOOXXXXXOOOOOOOOO.........OOOOOOOO..    ...XXX...XX",
"..XXXXXXXXOOOOOOOOXXOOOOOOO.............OOOOOOOO    .XXXXX......",
"....XXXXXXXXOOOOOOOOOOOOOOOO..........OOOOOOOOOOOO ...XXXXXX....",
"..  ..XXXXXXXXXOOOOOOOOOOOOOO......OOOOOXXXOOOOOOOOOO...XXXXXX..",
"X..   ....XXXXXXXXXOOOOOOOO.........OOOOOXXXXXXXOOOOOOOOOXXXXXXX",
"....   .......XX......OO.............OOXXXXXXXXXXOOOOOOOOOXXXXXX",
"X       ............  ....XXX.....OOOOXX......XXXXXXOOOOXXXXXXXX",
"XX    ...XXXX........    ..XXXXXOOOOX.......XXXXXXXOOOOOOXXXXXXX",
"XXXX..XOOOXXXXXXXX      XXXXXXOOOOXX................XXOOXXX...XX",
"XXXXXOOOOXXXXXXXXXXX     XXXOOOOOXXXXX.................XX....XXX",
"..OOOOOXXXXXXXXXXXXXXXX   XXXOOXXXXXXXXX...XX...................",
".OOOOOOOXXXX..XXXXXXXX  XXXXXXXXXXXXXXXXXXXXOO..OOO.............",
"XXXOOOOOOX......XXXXXXXXXXXXX.......OOOXXOOOOOOOOOOOO..OOO    XX",
"XXXXOOOOOOO.......XXXXXXXX.........OOOOOOOOOOOOOOOOOOOOOOOOO    ",
" XXXXXOOOOOO.....XXX....XXX..........OOOOOOOOOOOOOOOOOOOOOO     ",
"XXXXXXXXOOXXXXX...................XX..XOOOOOOX...OOOOOOOO      X",
"XXX.........XX..................XXXXX  XXXXOOOX.........     XXX",
"X.............XXX................XXXXX   XXXX.............  XXXX",
".............XXXXXXX...........XXXXX      XXXXX.....OO....XXXX..",
"....OOOO..XXXXXXXXXXXXX.....XXXXXXXXX   XXXXXXXX..OOOOOO...XXXXX",
"XX....OOOOXXooooXXXXXXOOOOOOOOOOXXXXXXXXXXXXXXOOOOOOOOO.....  XX",
"XOOOO..OOXXXooooXXXXOOOOOOOOOOOOOOXXXXXXXXXXOOOOOOOOOOOOO..    X",
"XXOOOOOOOOOXooooXXX..OOOOOOOOOOXXXXXXXXXXXXXXXXOOOOOOOOOOOOO..  ",
"    OOOOooXXooooX......OOOOOXXXX...XXXXXXXXXXXXXXXOOOOOOOOO..  .",
"XX   XXXXXoo...ooo.......OOOOX....XXX... ...XXXXX...XXOOXXXXX.XX",
"XXXXXXXXXX..............OOO............   .............XXXXXXXXX",
"XXXXXX...........................   ..   ................XXXXXXX",
"XXXX.............OO........XXXX...   X.    .......OO....XXXXXXXX",
"XXXXXXOOOOO.......OOO.......XXXXXXXXXXXXOOOOOOOOOOOOOOXXXXXXXXXX",
"XXOOOOOOOOOOO.  OOOOOOO...XXXXXXXXXXXXOOOOOOOOOOOOOOOOOOOOOOXXXX",
"XXXXOOOOOOO.     OOOOO..XXXXXXXXXXXXOOOOOOOOOOOOOOOOOOOOOOOOOOXX",
"OOOXXXOOOOOO..    .OO..XXXXXXXXXXXXXXXXOOOOOXXXOOOOOOOOOOOOOOOOO",
"OOXX....OO.......  .......XXXXXXX  XXXXXXXXXXX...OOOOOOOOOOXXXXX",
"XX..............  ..........XXXX      XXXXXX........OOOOOOOOXXXX",
"XXXXXX........................X      XXXXX............XXOOXXXXXX",
"XXXXXXXXX.......................    XXXX...............XXXXXXXXX",
"XXXXXXXXXXOOO...........OO........   .........OOOO.....XXXXXXXXX",
"XXXXXXXXOOOO..........OOOOOXXX.       ......OOOOOOOO..XXXXXXXXXX",
"XXXXXXXXXOOOOOOO....OOOOOOOOX.     ..........OOOOOOOOXXXXXXXXXXX",
"XXXXXXXXXXOOOOO......OOOOOXX....  ...XXX..OOOOOOOOOOXXXXXXXXXXXX",
"  XXXXXXXXXXOO......XXXXXXXXXX...XXXXXXOOOOOOOXXXXXOOOOOOXXXXX  ",
"    XXXXXXXXXXX....XXXXXXXXXXXXXXXXXOOOOOOXXXXXXXXOOOOOOOOOX    ",
"        XXXX.........XXXXXXX......OOOOXXXXXXXXXXXXXXOOOOOOOOOX  ",
"X     XXXXX............XXXXXX...OOOOOOOXXXXXXXXXXX..XXOOOOOOXXXX",
".........XXXX.........XXXX....OOOOOOOO...XX.............XXXXXXXX",
"XX.............................OOOOO....XXXX..............XXXXXX",
"XXXXX.................XX.........OOOOO........................XX",
"XXXXXXXX...........XXXX.............OOOO..  ........XXX....XXXXX",
"OOOXXXXOOOOOOOOOOOOOOOXXXXX..............    ....XXXXXXXXXXXOOOX",
"OOXXXOOOOOOOOOOOOOOOOOOOXXXXXX.............   ....XXXXXXXXOOOOOO",
"OOOOXXXXOOOO..OOOOOOOOOXXXXXXXX...XX..   .......XXXXXXOOOOOOXXXX",
"XXXXXXXOOO......OOOOXXXXXXXX....XXXXXX..  ....XXXXXXXXXXOOOOOXXX",
"XXXXXXXX...........XXXX...XXX....XXXXOOOOOOOOXXXXXXXXX...XXXXXXX",
"XXXXXXXXXXX........................XOOOOOOOOOOOOXXXX.......XXXXX",
"XXXXXXXXXXXXXXXX................XXXXXXXOOOOOOOOXX......XXXXXXXXX",
"XXXXXXXXXXXXXX................XXXXXXXXXXXXOOOOXXXXX.....XXXXXXXX",
"XXXX.....XXX....      OOOOOOXXXXXXXXXXXXXXXXXXXXX....XXXXXXXXXXX",
"..XXX........       OOOOOOOOOOOXXXXXXXXXXXXX..X.......XXXXXXXXXX",
"............      OOOOOOOOOOOOOOXXXXXXXX................XXXX...X",
"..............     .XOOOOOOOOOXXXXXXXXXXXX................XXX..."
};
